<svg width="121" height="46" viewBox="0 0 121 46" fill="none" xmlns="http://www.w3.org/2000/svg">
<path d="M119.925 22.1723C119.576 25.2598 118.275 28.2339 116.309 30.6865C114.343 33.1457 111.761 35.1065 108.887 36.4603C106.012 37.8272 102.848 38.5395 99.6605 38.8339C96.4676 39.1251 93.2336 38.9721 90.0507 38.5033C86.8628 38.0328 83.7242 37.2498 80.6498 36.2793C77.5737 35.3055 74.5635 34.1425 71.6092 32.871C68.6548 31.5995 65.7548 30.2193 62.8975 28.7882C59.7688 27.2206 56.6911 25.5938 53.643 23.9636C53.7204 23.9011 53.7993 23.8386 53.8766 23.7761C57.5218 25.7171 61.1753 27.6368 64.8731 29.4396C69.5826 31.731 74.3677 33.8465 79.2911 35.5079C81.7503 36.3353 84.2456 37.0492 86.769 37.5887C89.294 38.1283 91.8486 38.4934 94.4081 38.6217C96.9693 38.75 99.5354 38.63 102.049 38.2204C102.363 38.1661 102.677 38.1118 102.99 38.0526C103.301 37.9851 103.615 37.9309 103.923 37.8535L104.847 37.6265C105.151 37.5459 105.454 37.4489 105.757 37.3601C106.966 36.9801 108.147 36.5195 109.275 35.9536C110.402 35.3828 111.481 34.7248 112.494 33.9764C112.741 33.7823 112.999 33.5997 113.241 33.3974L113.958 32.7871L114.643 32.139C114.759 32.0337 114.863 31.9153 114.972 31.8018L115.294 31.4596C116.99 29.6107 118.319 27.4229 119.082 25.0427C119.457 23.8517 119.691 22.6164 119.772 21.3728C119.852 20.1292 119.777 18.8774 119.556 17.6536L119.466 17.1963C119.434 17.0433 119.41 16.8887 119.365 16.7406L119.12 15.8392L118.819 14.9575C118.771 14.8095 118.709 14.6664 118.648 14.5232L118.469 14.0939C118.405 13.9525 118.354 13.8044 118.283 13.6662L118.074 13.2501C117.934 12.9737 117.804 12.6908 117.64 12.4259C117.483 12.1595 117.33 11.888 117.169 11.6232C117 11.3649 116.839 11.1001 116.659 10.8468C115.256 8.80541 113.521 6.99596 111.524 5.55005C109.532 4.09592 107.301 2.99546 104.979 2.24207C106.341 2.66976 107.685 3.2093 108.973 3.88702C109.292 4.06303 109.617 4.22916 109.928 4.41997L110.399 4.70127L110.859 5.00064L111.091 5.15034L111.315 5.30824L111.767 5.62572L112.206 5.96129L112.429 6.12908L112.641 6.30509L113.068 6.6571L113.485 7.02721L113.692 7.21309L113.893 7.40555L114.294 7.79212C114.814 8.32508 115.322 8.87285 115.791 9.45681C116.737 10.6181 117.569 11.8848 118.253 13.2402C118.933 14.5973 119.446 16.0531 119.737 17.5615C120.027 19.0699 120.104 20.6309 119.925 22.1723ZM60.3561 18.7047C64.6428 15.4855 68.9213 12.4572 73.3018 9.73645C75.4945 8.37937 77.7119 7.0996 79.9787 5.94814C82.2454 4.80161 84.5631 3.77352 86.9532 3.0152C88.1475 2.6385 89.3598 2.3276 90.5869 2.14665L91.0459 2.08085L91.513 2.02823C91.8256 1.99697 92.1365 1.95255 92.449 1.93117L93.385 1.85385L94.3226 1.80121C96.8213 1.69429 99.3315 1.81931 101.784 2.28154C104.235 2.74213 106.625 3.54486 108.818 4.73744C109.913 5.33292 110.96 6.02216 111.938 6.80022C112.912 7.58486 113.817 8.45667 114.641 9.40416C115.116 9.95851 115.577 10.5343 115.998 11.1462C116.107 11.2975 116.214 11.4488 116.312 11.6068C116.414 11.763 116.516 11.9193 116.618 12.0756C116.806 12.3947 116.995 12.7171 117.184 13.0395C117.9 14.3489 118.452 15.7652 118.783 17.2423C119.112 18.7179 119.217 20.2542 119.082 21.7775C118.957 23.304 118.556 24.8108 117.959 26.2353C117.358 27.6598 116.561 29.0103 115.579 30.2193C114.603 31.4333 113.471 32.5223 112.234 33.4648C109.757 35.3582 106.869 36.6527 103.909 37.3601C101.736 37.8947 98.9169 38.273 95.8179 38.2368C92.7171 38.2138 89.3499 37.7779 86.0831 37.0393C82.8129 36.3073 79.6398 35.3055 76.8434 34.2906C74.047 33.2789 71.6174 32.2689 69.803 31.5156C74.6211 33.631 79.6727 35.5769 84.8625 36.8765C87.455 37.5279 90.0819 38.0032 92.704 38.2483C95.3227 38.4885 97.9382 38.4885 100.473 38.199C99.0831 38.3733 97.6783 38.4556 96.2669 38.4671C94.8572 38.4753 93.4409 38.4013 92.0279 38.2631C89.2002 37.9819 86.3874 37.4341 83.614 36.6971C78.0623 35.2216 72.6817 33.0355 67.4409 30.6026C62.8465 28.4625 58.3525 26.1185 53.9013 23.7563C56.0299 22.0324 58.1798 20.3414 60.3561 18.7047ZM120.17 19.4367C120.069 17.9036 119.739 16.3952 119.216 14.9707L119.122 14.7009C119.091 14.6121 119.049 14.5265 119.013 14.4394L118.791 13.9163C118.651 13.5626 118.465 13.2336 118.299 12.8964C118.138 12.5542 117.939 12.2351 117.748 11.9111C117.651 11.7499 117.559 11.587 117.459 11.4291L117.151 10.9603C116.733 10.3434 116.291 9.74139 115.815 9.17223C115.347 8.5965 114.84 8.0553 114.317 7.53386C113.351 6.58472 112.299 5.71948 111.173 4.95951C110.045 4.20284 108.847 3.54979 107.604 3.00202C105.115 1.90155 102.444 1.24852 99.7476 0.947494C97.0499 0.641533 94.321 0.69253 91.6282 0.983686C91.2893 1.02316 90.957 1.04947 90.6116 1.1054L90.1 1.18108L89.5917 1.27483C89.4223 1.30444 89.2545 1.34064 89.0867 1.37847L88.5834 1.49033C88.2527 1.57751 87.9172 1.65317 87.5898 1.75023C86.2722 2.12034 84.9859 2.57764 83.7242 3.08922C81.2058 4.11567 78.7877 5.35102 76.4256 6.68014C74.0651 8.01255 71.7687 9.45023 69.5102 10.9488C64.9932 13.9508 60.6341 17.1979 56.3556 20.5684C55.2189 21.4551 54.0888 22.3532 52.9637 23.2579C52.6495 23.0901 52.3353 22.924 52.0211 22.7562C46.953 20.0618 41.931 17.3608 36.835 14.9822C41.6037 17.221 46.2506 19.7081 50.8927 22.1838C51.5753 22.549 52.258 22.9125 52.939 23.2777C52.8617 23.3385 52.786 23.4027 52.7087 23.4635C50.5045 22.2841 48.3151 21.108 46.1339 19.9549C43.3819 18.5024 40.6397 17.0877 37.891 15.7685C35.1407 14.4492 32.3821 13.227 29.5972 12.1891C26.8139 11.156 23.9929 10.3072 21.1553 9.83844C19.7374 9.60814 18.3145 9.46996 16.9081 9.47819C15.4997 9.47819 14.1072 9.63117 12.7714 9.94536C11.9615 10.1378 11.1465 10.4027 10.361 10.7399C9.57423 11.0754 8.81854 11.485 8.11845 11.9473C6.713 12.8684 5.55546 14.0067 4.67064 15.0661C5.10984 14.5545 5.57355 14.0594 6.06835 13.5922C6.56447 13.1283 7.0953 12.6941 7.65343 12.2943C8.76689 11.4916 10.0147 10.8534 11.3402 10.3961C12.6669 9.93383 14.0735 9.6723 15.5023 9.56702C16.9344 9.45845 18.3885 9.5226 19.8394 9.69203C22.7427 10.0424 25.6263 10.8353 28.4605 11.8288C31.2964 12.8273 34.0912 14.038 36.8679 15.3441C42.1465 17.8378 47.361 20.6819 52.6446 23.5162C49.2576 26.2468 45.9167 29.0498 42.6038 31.861C41.4441 32.843 40.2861 33.8283 39.1231 34.7989C37.9683 35.7612 36.7807 36.6856 35.5618 37.5624C33.1256 39.3175 30.5578 40.8944 27.8535 42.1531C25.1542 43.411 22.2969 44.3338 19.3854 44.6464C16.4789 44.9749 13.5246 44.5725 10.8894 43.3901C10.6013 43.2495 10.3067 43.105 10.0057 42.9577C9.71767 42.79 9.42058 42.6245 9.1235 42.4449C8.98006 42.3479 8.83416 42.25 8.68809 42.1511C8.54218 42.0505 8.3897 41.9588 8.2502 41.8432C8.10808 41.7328 7.96465 41.6215 7.82006 41.5094C7.749 41.4527 7.67399 41.3987 7.60424 41.3392C7.53449 41.278 7.46605 41.2165 7.39631 41.1548C6.27626 40.1795 5.22483 38.9836 4.34642 37.6183C3.47049 36.253 2.74078 34.7397 2.20206 33.1621C1.67108 31.583 1.31972 29.9463 1.14914 28.3424C0.97872 26.737 1.00586 25.1644 1.17513 23.707C1.34423 22.2496 1.66729 20.9073 2.07277 19.7427C2.12327 19.5963 2.17229 19.4532 2.22147 19.3117C2.2769 19.1735 2.33382 19.037 2.3881 18.9021C2.49782 18.634 2.59867 18.3708 2.7227 18.129C2.84278 17.8855 2.94607 17.6454 3.065 17.4249C3.18508 17.2045 3.30007 16.994 3.40978 16.7949C3.43824 16.7439 3.46407 16.6946 3.49121 16.6452C3.52099 16.5975 3.55076 16.5515 3.57905 16.5054C3.63728 16.4133 3.69271 16.3245 3.747 16.2373C3.85688 16.0646 3.95246 15.8951 4.05445 15.7454C4.26122 15.451 4.43557 15.1944 4.57243 14.9789C4.43688 15.1434 4.30118 15.3079 4.16432 15.4724C4.09573 15.5563 4.0273 15.6385 3.95887 15.7224C3.89175 15.808 3.83237 15.8984 3.76772 15.9856C3.64238 16.1633 3.51588 16.3409 3.38922 16.5202C3.26898 16.7028 3.15926 16.8936 3.04428 17.0811L2.87122 17.3641C2.81299 17.4578 2.76776 17.5582 2.71479 17.6552C2.61281 17.8526 2.51082 18.0484 2.40752 18.2458C2.31063 18.4448 2.22658 18.6521 2.13479 18.8544L2.00056 19.1587C1.95401 19.259 1.92176 19.366 1.88162 19.4696C1.80414 19.6769 1.72667 19.8858 1.65051 20.093C1.57682 20.3019 1.51876 20.5141 1.45279 20.7247C1.31199 21.1425 1.22415 21.5718 1.11558 21.9913C1.06146 22.2019 1.03036 22.4157 0.987759 22.6263C0.950254 22.8368 0.898615 23.0441 0.872789 23.2546C0.818506 23.6741 0.742342 24.0853 0.713884 24.4949C0.782314 23.2579 0.981349 21.8334 1.40492 20.4187C1.30425 20.7543 1.18664 21.0965 1.1067 21.4518C1.06146 21.6294 1.01754 21.8054 0.972305 21.9831C0.927069 22.1607 0.899918 22.3433 0.863729 22.521C0.830172 22.7003 0.795312 22.8796 0.761755 23.0556C0.734613 23.2333 0.713882 23.4109 0.690688 23.5853C0.667494 23.7613 0.646772 23.934 0.62473 24.1034C0.61305 24.2729 0.601534 24.4406 0.589855 24.6035C0.598902 24.4686 0.606621 24.3337 0.614352 24.1988C0.620932 24.0623 0.641501 23.9307 0.654496 23.7991C0.682954 23.5376 0.708781 23.2859 0.734607 23.0539C0.805669 22.595 0.853365 22.2134 0.875407 22.0045C0.827539 22.2101 0.790045 22.4305 0.746125 22.6575C0.702205 22.8845 0.657131 23.1197 0.632456 23.3616C0.602847 23.6017 0.573075 23.8468 0.543301 24.0919C0.526523 24.3387 0.509736 24.587 0.492957 24.8305C0.486542 24.9539 0.476179 25.0756 0.472395 25.1957C0.471079 25.3157 0.469775 25.4358 0.46846 25.5543C0.467144 25.7895 0.46204 26.0181 0.464508 26.2386C0.472404 26.4573 0.481286 26.6679 0.489182 26.8637C0.498229 27.061 0.500693 27.2436 0.518788 27.4098C0.538198 27.6039 0.562705 27.974 0.618304 28.4313C0.650545 28.6599 0.685424 28.9116 0.722928 29.1748C0.757801 29.4396 0.819813 29.711 0.867681 29.9874C0.894658 30.1239 0.916701 30.2621 0.946474 30.3986C0.977399 30.5352 1.00981 30.6701 1.04074 30.8033C1.07166 30.9365 1.10144 31.0665 1.13121 31.1948C1.14536 31.2589 1.1595 31.3215 1.17381 31.384C1.19191 31.4448 1.20868 31.5057 1.22414 31.5633C1.3559 32.037 1.45805 32.4384 1.53552 32.6818C1.10915 31.4267 0.761746 29.9578 0.575702 28.5234C0.383244 27.0874 0.35347 25.6941 0.394758 24.6002C0.301819 25.523 0.310866 26.4458 0.32896 27.3456C0.304451 27.0676 0.296563 26.7222 0.279949 26.3504C0.26827 25.9803 0.285041 25.5839 0.285041 25.2039C0.305603 24.8256 0.325017 24.4637 0.341795 24.161C0.365154 23.8583 0.390975 23.6149 0.394758 23.4718C0.305602 24.0459 0.27205 24.6084 0.230761 25.1644C0.22303 25.4424 0.216617 25.7171 0.208722 25.9935L0.203613 26.2007L0.208722 26.4064L0.217926 26.8192C0.254115 27.9213 0.347053 29.0333 0.561389 30.2128C0.593795 30.4546 0.651863 30.6882 0.698415 30.9217C0.74875 31.1537 0.786261 31.3856 0.848275 31.611C0.965725 32.0633 1.0705 32.5108 1.2151 32.945C1.47352 33.8218 1.81583 34.6607 2.1968 35.5095C1.72141 34.5044 1.26033 33.2806 0.929527 32.1077C0.754011 31.5221 0.631299 30.9464 0.50727 30.4283C0.45677 30.1667 0.409071 29.9183 0.363835 29.688C0.341793 29.5729 0.31992 29.4627 0.299194 29.3574C0.281099 29.2505 0.265629 29.1501 0.250167 29.0547C0.359885 30.0828 0.561392 31.1603 0.856002 32.1851C0.81603 32.0617 0.787567 31.9893 0.77194 31.9663C0.800397 32.0814 0.832641 32.2048 0.865046 32.3331C0.881825 32.3973 0.898612 32.4631 0.915391 32.5305C0.934801 32.5963 0.954212 32.6621 0.973622 32.7279C1.05488 32.9927 1.13631 33.2609 1.20869 33.4961C1.20474 33.5043 1.20605 33.529 1.20605 33.5471C1.20868 33.5487 1.21115 33.5487 1.21378 33.5504L1.33272 33.9254C2.10518 36.1954 3.34909 38.3503 4.83859 40.0989C5.62915 41.0324 6.48946 41.8417 7.39122 42.5537C8.29544 43.2602 9.25265 43.8745 10.2641 44.3552C11.2756 44.8396 12.3323 45.2272 13.4394 45.4994C14.5464 45.7759 15.7051 45.9146 16.9031 45.933C18.405 45.9564 19.8969 45.8166 21.3593 45.5378C22.8217 45.2614 24.256 44.8594 25.6641 44.3585C28.4737 43.3539 31.1681 41.9649 33.749 40.2749C36.1161 38.7221 38.3713 36.9653 40.5262 35.095C42.6844 33.2345 44.8376 31.3544 47.0155 29.4956C49.1803 27.645 51.3681 25.8125 53.5772 24.0162C59.101 26.9755 64.7037 29.9315 70.507 32.5025C73.4268 33.7955 76.3993 34.988 79.4309 36.0063C82.4642 37.0212 85.5567 37.8634 88.7018 38.4178C91.842 38.9754 95.0382 39.2337 98.2129 39.0807C99.0058 39.0478 99.797 38.9737 100.585 38.8866C101.373 38.7944 102.156 38.6727 102.934 38.5296C103.71 38.3816 104.482 38.1973 105.245 37.9901C105.623 37.8733 106.005 37.7697 106.378 37.643C106.75 37.5081 107.125 37.3831 107.494 37.2416C110.435 36.0984 113.141 34.3564 115.306 32.0946C116.388 30.9645 117.332 29.7061 118.095 28.3507C118.855 26.9936 119.446 25.5395 119.791 24.0294C120.143 22.5226 120.272 20.9682 120.17 19.4367Z" fill="#040606"/>
</svg>
