<svg width="60" height="60" viewBox="0 0 60 60" fill="none" xmlns="http://www.w3.org/2000/svg">
<path d="M42.5 5H17.5C10.5964 5 5 10.5964 5 17.5V42.5C5 49.4036 10.5964 55 17.5 55H42.5C49.4036 55 55 49.4036 55 42.5V17.5C55 10.5964 49.4036 5 42.5 5Z" stroke="#D0B898" stroke-width="3" stroke-linecap="round" stroke-linejoin="round"/>
<path d="M40 28.4258C40.3085 30.5064 39.9531 32.6313 38.9844 34.4983C38.0157 36.3653 36.4829 37.8793 34.6041 38.8249C32.7253 39.7706 30.5961 40.0997 28.5195 39.7656C26.4428 39.4314 24.5244 38.451 23.0371 36.9637C21.5498 35.4764 20.5693 33.5579 20.2352 31.4813C19.901 29.4046 20.2302 27.2755 21.1758 25.3967C22.1215 23.5179 23.6355 21.9851 25.5025 21.0164C27.3695 20.0476 29.4944 19.6922 31.575 20.0008C33.6973 20.3155 35.6621 21.3044 37.1792 22.8215C38.6963 24.3386 39.6853 26.3034 40 28.4258Z" stroke="#D0B898" stroke-width="3" stroke-linecap="round" stroke-linejoin="round"/>
<path d="M43.75 16.25H43.775" stroke="#D0B898" stroke-width="3" stroke-linecap="round" stroke-linejoin="round"/>
</svg>
