<svg width="1200" height="273" viewBox="0 0 1200 273" fill="none" xmlns="http://www.w3.org/2000/svg">
<circle cx="635" cy="82" r="82" fill="#C72A1E"/>
<path d="M370.869 129.373C370.314 129.894 366.283 125.941 357.44 114.404C355.192 111.56 352.605 108.275 349.394 104.763C347.808 102.986 346.01 101.216 344.049 99.3966C342.064 97.5962 339.847 95.91 337.373 94.0418C332.495 90.3286 327.12 86.1062 321.415 81.1385C315.708 76.1766 309.672 70.543 302.969 64.4873C300.414 62.1893 297.959 59.9803 295.696 57.9437C294.234 59.0859 292.811 60.1972 291.423 61.2813C289.723 62.5803 288.07 63.8445 286.459 65.0758C283.222 67.517 280.144 69.8015 277.213 71.9291C271.353 76.1883 266.108 79.8589 261.487 83.1055C252.229 89.5755 245.504 94.4232 240.606 97.9911C230.831 105.143 228.204 106.885 227.732 106.287C227.298 105.739 229.399 103.526 238.966 96.1152C243.756 92.4214 250.468 87.4905 259.731 80.9779C264.356 77.7119 269.603 74.0335 275.469 69.7724C278.402 67.6429 281.484 65.3604 284.725 62.9172C286.337 61.6859 287.995 60.4198 289.698 59.1188C291.684 57.5681 293.723 55.9767 295.816 54.3428C298.484 56.7395 301.391 59.355 304.413 62.0693C311.515 68.4831 317.841 74.3917 323.729 79.4794C329.612 84.5749 335.108 88.8533 340.066 92.6207C345.171 96.3281 349.179 100.394 352.367 104.041C355.566 107.721 358.086 111.041 360.22 113.878C368.616 125.315 371.454 128.835 370.869 129.373Z" fill="#222222"/>
<path d="M442.523 160.631C441.596 161.851 429.872 152.825 391.247 123.418C379.748 114.656 370.769 107.812 363.788 102.492C362.045 101.158 360.429 99.917 358.928 98.7671C358.179 98.1901 357.459 97.6364 356.768 97.104C356.119 96.6046 355.469 96.1767 354.807 95.7605C353.482 94.9435 352.214 94.2369 351.047 93.6077C349.969 93.0404 348.993 92.5255 348.108 92.0608L348.052 92.055L347.711 92.0705C347.483 92.086 347.26 92.0996 347.043 92.1131C346.608 92.1441 346.194 92.1848 345.802 92.2332C345.018 92.3222 344.327 92.4422 343.717 92.57C342.498 92.8255 341.629 93.1315 341.003 93.3948C339.799 93.9523 339.435 94.3085 339.079 94.1111C338.792 93.9968 338.734 93.1624 340.099 92.0027C340.777 91.4665 341.78 90.9264 343.131 90.4946C343.806 90.2778 344.569 90.0823 345.425 89.9274C345.853 89.8442 346.304 89.7745 346.782 89.7145C347.022 89.6874 347.266 89.6583 347.518 89.6312L347.905 89.5964L348.615 89.5576C349.208 89.8364 349.833 90.1287 350.489 90.4366C351.039 90.7076 351.616 90.9941 352.222 91.2942C353.428 91.906 354.737 92.601 356.152 93.447C356.855 93.8748 357.598 94.3433 358.348 94.9067C359.039 95.4294 359.759 95.9735 360.506 96.5407C362.001 97.6752 363.611 98.8987 365.348 100.217C372.281 105.498 381.198 112.292 392.626 120.998C433.467 152.091 443.453 159.411 442.523 160.631Z" fill="#222222"/>
<path d="M567.877 169.32C567.529 170.002 562.741 168.048 550.454 162.188C538.168 156.328 518.384 146.561 488.044 131.617C479.483 127.401 471.811 123.622 464.938 120.236C461.51 118.573 458.249 116.881 455.237 115.514C453.744 114.858 452.3 114.374 450.931 114.23C449.569 114.083 448.3 114.333 447.06 114.838C444.597 115.862 442.413 117.667 440.266 119.144C438.142 120.652 436.172 122.05 434.342 123.349C430.672 125.929 427.568 128.111 424.955 129.948C414.46 137.247 411.618 138.835 411.171 138.213C410.725 137.59 413.05 135.524 423.255 128.055C425.814 126.2 428.858 123.993 432.466 121.378C434.276 120.077 436.226 118.675 438.33 117.163C440.462 115.709 442.566 113.888 445.551 112.482C447.027 111.808 448.819 111.324 450.666 111.439C452.498 111.537 454.244 112.091 455.874 112.776C459.103 114.182 462.199 115.843 465.674 117.514C472.541 120.898 480.215 124.681 488.787 128.905C520.89 144.716 540.836 154.479 552.67 160.459C564.505 166.441 568.226 168.639 567.877 169.32Z" fill="#222222"/>
<path d="M619.845 186.157C619.15 187.522 610.641 183.097 582.604 168.803C578.649 166.786 575.104 164.98 571.929 163.361C568.749 161.758 565.955 160.25 563.508 159.158C561.051 158.063 558.869 157.418 556.964 157.209C555.088 156.996 553.48 157.213 552.198 157.577C549.606 158.314 548.359 159.503 547.559 160.132C546.773 160.802 546.402 161.038 546.044 160.841C545.732 160.676 545.598 160.179 546.185 159.092C546.77 158.059 548.204 156.31 551.3 155.207C552.831 154.663 554.771 154.32 557.05 154.504C559.293 154.69 561.797 155.391 564.416 156.539C567.053 157.689 569.798 159.181 572.977 160.783C576.146 162.401 579.689 164.209 583.648 166.23C613.291 181.348 620.542 184.792 619.845 186.157Z" fill="#222222"/>
<path d="M673.73 171.153C673.905 172.674 665.87 173.521 639.533 176.552C609.807 179.975 604.779 180.633 604.603 179.112C604.427 177.59 609.268 177.257 639.016 173.832C666.865 170.626 673.554 169.631 673.73 171.153Z" fill="#222222"/>
<path d="M787.708 121.349C787.534 121.79 786.16 121.498 782.855 121.07C781.2 120.859 779.055 120.623 776.348 120.408C774.995 120.305 773.502 120.199 771.859 120.119C771.038 120.083 770.18 120.046 769.284 120.007C768.496 119.986 767.675 119.964 766.819 119.941C765.667 120.572 764.45 121.242 763.16 121.949C761.79 122.731 760.332 123.573 758.942 124.526C756.065 126.607 752.898 128.899 749.419 131.418C742.436 136.457 734.2 142.4 724.547 149.368C672.983 186.568 664.29 192.935 663.394 191.694C662.498 190.451 670.981 184.606 722.584 147.382C732.462 140.251 740.806 134.227 747.831 129.154C751.359 126.616 754.553 124.318 757.443 122.239C758.992 121.196 760.467 120.363 761.877 119.573C762.583 119.19 763.271 118.816 763.939 118.454C764.717 118.05 765.474 117.657 766.208 117.275C766.843 117.297 767.466 117.318 768.074 117.339C768.569 117.364 769.053 117.388 769.526 117.413C770.471 117.477 771.371 117.537 772.23 117.595C773.948 117.726 775.498 117.885 776.892 118.061C779.68 118.41 781.848 118.83 783.482 119.246C786.764 120.117 787.871 120.961 787.708 121.349Z" fill="#222222"/>
<path d="M955.05 129.111C954.51 129.706 949.431 125.406 936.075 114.036C922.651 102.763 901.042 84.2028 865.633 58.7661C864.381 57.8736 863.145 56.9928 861.926 56.1235C860.694 55.2446 859.558 54.4179 858.454 54.0171C857.341 53.6087 856.46 53.6939 855.44 54.263C854.432 54.8187 853.444 55.7654 852.389 56.6869C848.242 60.3536 844.324 63.819 840.62 67.0927C833.209 73.6382 826.664 79.4209 820.885 84.5261C809.291 94.6957 800.776 102.163 794.577 107.599C782.108 118.394 778.741 120.887 778.234 120.314C777.727 119.741 780.499 116.853 792.634 105.944C798.732 100.523 807.132 93.0559 818.616 82.8495C824.372 77.7618 830.9 71.9926 838.297 65.4529C841.997 62.1831 845.913 58.7235 850.06 55.0587C851.109 54.1624 852.079 53.1789 853.438 52.2516C854.11 51.8005 854.902 51.3881 855.814 51.1597C856.73 50.9312 857.74 50.9564 858.621 51.181C860.404 51.6378 861.744 52.6175 862.981 53.479C864.204 54.3521 865.445 55.2349 866.702 56.1312C885.51 69.563 900.289 81.0782 912.038 90.5412C923.778 100.022 932.484 107.467 938.908 113.128C951.718 124.496 955.543 128.569 955.05 129.111Z" fill="#222222"/>
<path d="M1053.92 177.143C1053.38 177.689 1049.66 174.547 1040.39 165.688C1031.12 156.829 1016.29 142.253 993.548 119.929C979.956 106.579 969.43 96.2426 961.398 88.3536C955.509 92.7831 950.789 96.3336 947.021 99.1679C942.991 102.169 939.959 104.383 937.688 105.977C933.146 109.163 931.652 109.868 931.315 109.423C930.976 108.977 932.02 107.773 936.296 104.287C938.435 102.542 941.382 100.229 945.368 97.1506C949.617 93.902 954.953 89.8229 961.628 84.7178C970.019 92.9553 980.986 103.723 995.138 117.618C1019.19 141.221 1034.15 155.828 1042.97 164.671C1051.79 173.517 1054.46 176.597 1053.92 177.143Z" fill="#222222"/>
<path d="M380.927 143.139C380.058 144.402 379.448 143.885 377.297 142.402C374.869 140.729 374.412 140.51 375.281 139.25C376.151 137.988 376.416 138.443 378.846 140.117C381.122 141.684 381.796 141.877 380.927 143.139Z" fill="#222222"/>
<path d="M237.855 113.752C237.439 114.395 234.912 113.191 228.669 109.35C227.118 108.378 225.327 107.255 223.271 105.968C222.797 105.664 222.367 105.46 222.133 105.453C221.943 105.427 221.632 105.516 221.149 105.84C220.067 106.643 218.921 107.495 217.707 108.395C212.794 112.083 206.854 116.677 199.78 122.386C183.83 135.303 174.87 143.295 169.622 147.722C164.399 152.177 162.912 153.13 162.377 152.559C161.864 152.011 162.834 150.597 167.823 145.937C172.837 141.307 181.82 133.387 197.829 120.414C205.333 114.352 211.512 109.563 216.575 105.799C217.208 105.331 217.823 104.876 218.42 104.434C219.012 104.014 219.56 103.53 220.441 103.104C221.275 102.638 222.683 102.622 223.482 103.023C224.324 103.379 224.839 103.786 225.339 104.097C227.36 105.439 229.097 106.591 230.583 107.578C236.502 111.572 238.271 113.109 237.855 113.752Z" fill="#222222"/>
<path d="M864.925 181.327C864.93 181.408 864.923 181.621 864.917 181.576C864.882 181.571 865.025 181.613 865.124 181.575C865.163 181.567 865.223 181.586 865.279 181.582C865.298 181.598 865.35 181.536 865.318 181.592C865.267 181.669 865.248 181.795 865.254 181.818C865.261 181.853 865.246 181.818 865.246 181.818C865.24 181.807 865.221 181.778 865.205 181.764L865.178 181.743L864.979 181.578L864.981 181.58L864.985 181.584C865.027 181.617 865.019 181.602 864.983 181.596C864.772 181.582 864.876 181.58 864.768 181.503C864.704 181.439 864.595 181.358 864.51 181.333C864.266 181.156 863.554 181.116 862.832 180.171C859.424 175.331 853.092 164.902 841.573 146.046C837.711 136.666 829.467 135.99 823.679 135.059C817.671 134.345 813.261 133.793 810.057 133.334C803.647 132.416 802.052 131.865 802.122 131.102C802.193 130.339 803.785 130.194 810.193 130.804C813.397 131.108 817.803 131.599 823.824 132.296C826.831 132.711 830.36 133.17 834.201 134.734C836.106 135.526 838.096 136.666 839.784 138.424C840.601 139.266 841.401 140.41 841.947 141.359C842.545 142.34 843.16 143.347 843.793 144.383C855.675 163.833 861.98 173.984 864.688 179.019C864.621 179.083 865.058 179.35 865.602 179.735C866.299 180.326 866.673 181.044 866.431 181.977C866.359 182.198 866.233 182.378 866.088 182.527C865.896 182.73 865.563 182.885 865.271 182.862C864.717 182.796 864.568 182.535 864.431 182.362C864.309 182.171 864.251 181.985 864.243 181.778C864.228 181.565 864.338 181.296 864.506 181.195C864.847 181.044 864.897 181.243 864.925 181.327Z" fill="#222222"/>
<path d="M980.33 149.91C979.646 151.19 977.935 150.518 973.347 146.948C970.807 144.874 969.484 143.469 968.857 142.561C968.239 141.641 968.34 141.19 968.913 140.689C969.492 140.182 969.899 140.162 970.69 140.819C971.492 141.461 972.665 142.822 975.048 144.774C977.298 146.578 978.862 147.453 979.7 148.125C980.546 148.789 980.703 149.234 980.33 149.91Z" fill="#222222"/>
<path d="M908.65 193.792C907.93 195.138 901.14 191.45 878.734 179.491C866.041 172.743 859.072 167.75 855.413 164.553C851.75 161.342 851.181 160.149 851.68 159.621C852.23 159.034 853.216 159.665 856.917 162.517C860.625 165.359 867.251 170.241 879.874 176.969C903.539 189.601 909.376 192.437 908.65 193.792Z" fill="#222222"/>
<path d="M513.43 189.75C512.966 190.377 510.478 188.94 504.252 184.703C498.001 180.505 488.046 173.424 472.122 163.589C463.134 158.048 455.862 153.901 450.099 150.664C448.655 149.861 447.305 149.112 446.047 148.411C444.787 147.728 443.594 146.996 442.651 146.632C440.814 145.9 439.25 146.653 437.881 147.573C436.534 148.515 435.428 149.478 434.443 150.171C433.461 150.877 432.602 151.332 431.928 151.596C430.534 152.087 429.961 151.845 429.882 151.51C429.773 151.108 430.116 150.815 431.063 150.107C431.531 149.722 432.16 149.245 432.977 148.504C433.806 147.776 434.791 146.775 436.274 145.617C437.031 145.056 437.931 144.434 439.147 144.018C440.338 143.602 441.943 143.511 443.358 144.024C444.779 144.52 445.886 145.23 447.154 145.896C448.417 146.589 449.768 147.333 451.218 148.128C456.999 151.348 464.282 155.524 473.325 161.088C490.239 171.534 500.32 178.674 506.257 183.028C512.172 187.425 513.875 189.148 513.43 189.75Z" fill="#222222"/>
<path d="M294.59 171.285C293.996 171.75 291.967 169.787 287.362 164.016C282.727 158.27 275.724 148.559 264.587 134.064C259.302 127.242 254.777 121.742 250.965 117.289C249.066 115.055 247.324 113.103 245.781 111.351C245.088 110.548 244.298 109.882 243.522 109.23C242.863 108.701 242.248 108.207 241.673 107.747L241.644 107.743L241.231 107.762C240.935 107.78 240.647 107.799 240.366 107.816C239.803 107.861 239.268 107.903 238.761 107.942C237.748 108.035 236.844 108.13 236.049 108.238C234.45 108.442 233.265 108.657 232.384 108.815C230.64 109.15 230.045 109.224 229.807 108.815C229.588 108.459 229.97 107.795 231.786 106.999C232.69 106.616 233.94 106.221 235.613 105.882C236.449 105.706 237.392 105.555 238.451 105.414C238.982 105.354 239.541 105.288 240.13 105.22C240.426 105.193 240.728 105.166 241.04 105.139C241.508 105.11 241.99 105.079 242.482 105.05C242.974 105.414 243.485 105.791 244.011 106.182C244.399 106.486 244.797 106.8 245.212 107.123C246.021 107.785 246.921 108.521 247.777 109.483C249.333 111.226 251.085 113.173 252.988 115.403C256.81 119.852 261.323 125.358 266.596 132.153C278.421 147.548 285.493 157.247 289.766 163.005C294 168.788 295.202 170.805 294.59 171.285Z" fill="#222222"/>
<path d="M310.593 185.229C309.617 186.41 308.851 185.674 306.173 183.459C303.149 180.96 302.588 180.596 303.564 179.417C304.539 178.236 304.888 178.813 307.912 181.314C310.744 183.655 311.571 184.048 310.593 185.229Z" fill="#222222"/>
<path d="M284.428 123.387C285.269 124.711 283.019 125.884 276.237 130.662C268.656 136.156 267.574 137.349 266.588 136.114C265.661 134.956 266.896 134.025 274.58 128.451C281.848 123.336 283.631 122.128 284.428 123.387Z" fill="#222222"/>
<path d="M371.541 178.058C370.79 179.33 360.285 173.23 326.834 151.834C289.073 127.719 282.345 124.229 283.174 122.833C283.906 121.594 290.256 125.207 328.063 149.344C363.431 171.95 372.362 176.68 371.541 178.058Z" fill="#222222"/>
<path d="M362.986 159.779C364.076 160.764 363.143 162.015 359.294 165.172C357.087 166.909 355.678 167.772 354.791 168.117C353.899 168.452 353.514 168.245 353.138 167.581C352.76 166.911 352.791 166.525 353.467 165.962C354.137 165.389 355.479 164.657 357.55 163.033C361.352 159.899 361.811 158.693 362.986 159.779Z" fill="#222222"/>
<path d="M425.094 197.004C424.382 198.299 416.932 194.334 392.986 180.465C366.049 164.652 361.633 161.719 362.4 160.474C363.238 159.109 367.288 162.17 394.194 177.973C419.472 192.605 425.863 195.608 425.094 197.004Z" fill="#222222"/>
<path d="M414.655 184.711C415.474 186.006 414.922 186.261 413.252 187.317C411.366 188.509 411.089 188.778 410.27 187.483C409.451 186.188 409.877 186.184 411.763 184.991C413.53 183.874 413.836 183.416 414.655 184.711Z" fill="#222222"/>
<path d="M505.543 172.705C504.753 174.018 500.813 171.554 487.75 163.694C485.907 162.584 484.255 161.591 482.776 160.701C481.316 159.853 479.915 158.89 479.015 158.538C478.544 158.358 478.225 158.339 477.928 158.391C477.617 158.449 477.251 158.627 476.889 158.852C476.078 159.401 475.39 159.864 474.812 160.255C472.399 161.839 471.598 161.982 471.139 161.368C470.682 160.755 471.044 160.075 473.249 158.265C473.824 157.804 474.407 157.311 475.33 156.65C475.803 156.331 476.391 155.963 477.214 155.746C478.048 155.516 479.051 155.613 479.851 155.903C481.491 156.54 482.581 157.404 484.104 158.267C485.581 159.158 487.231 160.155 489.074 161.266C502.887 169.581 506.335 171.393 505.543 172.705Z" fill="#222222"/>
<path d="M522.024 182.128C521.075 183.377 520.533 182.697 518.119 181.363C515.337 179.97 514.749 180.045 515.252 178.547C515.715 177.141 516.272 177.354 519.391 178.912C522.247 180.496 522.928 180.949 522.024 182.128Z" fill="#222222"/>
<path d="M444.165 200.937C444.033 201.663 443.34 201.971 441.701 201.638C440.078 201.301 437.509 200.264 434.255 197.898C430.627 195.191 428.826 193.333 427.853 192.22C426.906 191.079 426.894 190.561 427.425 190.009C427.957 189.455 428.437 189.471 429.572 190.363C430.722 191.225 432.447 193.099 435.829 195.625C439.029 197.948 441.298 198.709 442.591 199.263C443.898 199.803 444.31 200.163 444.165 200.937Z" fill="#222222"/>
<path d="M973.521 228.887C972.644 230.144 963.605 223.735 933.795 202.924C926.709 197.975 920.864 193.893 916.055 190.534C913.655 188.847 911.516 187.343 909.607 186.002C908.656 185.328 907.762 184.695 906.925 184.1C906.507 183.802 906.103 183.514 905.712 183.235L905.261 182.91L905.23 182.879C903.282 183.837 901.708 184.613 900.442 185.237C898.978 185.934 897.854 186.431 896.996 186.764C895.279 187.426 894.619 187.426 894.411 187.033C894.204 186.638 894.562 186.114 896.08 185.09C896.839 184.579 897.886 183.942 899.298 183.136C900.006 182.739 900.802 182.294 901.696 181.795C902.813 181.191 904.051 180.521 905.421 179.779C911.388 183.938 920.746 190.462 935.146 200.498C966.668 222.508 974.398 227.631 973.521 228.887Z" fill="#222222"/>
<path d="M1006.86 234.525C1006.35 235.114 1005.53 234.846 1003.79 233.671C1002.05 232.508 999.407 230.388 994.981 227.681C989.961 224.669 986.79 223.354 985.067 222.406C983.331 221.48 982.99 220.977 983.272 220.257C983.549 219.55 984.128 219.407 986.025 220.065C987.907 220.749 991.148 222.17 996.344 225.279C1001.18 228.235 1003.97 230.409 1005.52 231.818C1007.07 233.243 1007.35 233.952 1006.86 234.525Z" fill="#222222"/>
<path d="M1040.43 247.812C1039.61 249.105 1035.04 246.108 1019.93 236.494C1017.79 235.137 1015.88 233.923 1014.17 232.833C1012.45 231.755 1010.94 230.731 1009.67 230.039C1007.11 228.593 1005.15 228.692 1003.69 228.942C1002.24 229.224 1001.38 229.644 1000.79 229.799C1000.2 229.966 999.865 229.908 999.608 229.612C999.362 229.329 999.327 228.969 999.773 228.407C1000.22 227.865 1001.16 227.064 1003 226.506C1003.92 226.243 1005.06 226.051 1006.43 226.162C1007.8 226.255 1009.36 226.744 1010.85 227.542C1012.37 228.345 1013.82 229.348 1015.54 230.425C1017.25 231.515 1019.16 232.73 1021.29 234.089C1037.28 244.257 1041.25 246.518 1040.43 247.812Z" fill="#222222"/>
<path d="M717.369 205.979C717.777 206.613 716.904 207.642 714.076 209.578C711.244 211.501 706.479 214.37 698.884 218.213C690.289 222.503 685.052 224.572 682.012 225.616C678.959 226.634 678.067 226.561 677.802 225.85C677.531 225.126 678.144 224.567 681.015 223.291C683.873 221.99 689.034 220.035 697.529 215.804C705.455 211.795 710.127 208.86 713.007 207.267C715.882 205.654 716.949 205.327 717.369 205.979Z" fill="#222222"/>
<path d="M809.006 249.585C808.681 250.266 806.76 249.777 802.077 247.653C797.402 245.517 789.948 241.783 778.776 235.594C766.188 228.57 759.027 224.11 755.014 221.432C751.012 218.731 750.187 217.758 750.596 217.117C751.01 216.466 752.16 216.828 756.261 219.229C760.375 221.608 767.414 226.086 779.947 233.087C791.702 239.599 799.206 243.247 803.603 245.585C808.009 247.91 809.341 248.886 809.006 249.585Z" fill="#222222"/>
<path d="M861.883 265.966C861.283 267.375 852.383 263.503 823.079 251.034C814.81 247.51 808.261 244.718 803.084 242.513C800.517 241.437 798.192 240.38 796.335 239.453C794.455 238.541 792.891 237.875 791.563 237.488C788.903 236.7 787.327 237.1 786.336 237.339C785.349 237.604 784.888 237.652 784.65 237.325C784.435 237.04 784.533 236.549 785.554 235.801C786.524 235.079 788.853 234.227 792.059 235.002C793.642 235.36 795.383 236.047 797.315 236.934C799.253 237.852 801.351 238.806 803.967 239.888C809.122 242.086 815.664 244.871 823.936 248.397C854.923 261.583 862.483 264.556 861.883 265.966Z" fill="#222222"/>
<path d="M1131.3 256.91C1130.69 257.286 1127.73 253.348 1121.44 242.085C1118.29 236.457 1114.38 228.973 1109.38 219.39C1104.31 209.847 1098.3 198.088 1089.63 184.757C1087.57 181.51 1085.57 178.713 1083.1 176.363C1080.7 173.989 1078.1 172.024 1075.52 170.262C1072.94 168.501 1070.37 166.952 1067.92 165.446C1065.48 163.912 1063.16 162.457 1060.97 161.076C1056.58 158.308 1052.66 155.839 1049.17 153.638C1047.3 152.471 1045.89 151.168 1044.45 150.057C1043.04 148.924 1041.72 147.867 1040.48 146.878C1038.01 144.922 1035.86 143.275 1033.99 142.009C1033.52 141.701 1033.07 141.405 1032.64 141.167C1032.26 140.94 1031.71 140.69 1031.61 140.671C1031.57 140.656 1031.53 140.652 1031.47 140.671C1031.25 140.747 1031.03 140.822 1030.82 140.894C1030.4 141.037 1030 141.173 1029.62 141.302C1026.55 142.326 1024.71 142.839 1023.68 142.987L1023.24 142.019C1024.04 141.79 1024.38 141.829 1024.49 142.038C1024.6 142.249 1024.44 142.557 1023.8 143.078L1023.26 141.87C1024.12 141.31 1025.82 140.507 1028.77 139.279C1029.14 139.126 1029.53 138.967 1029.93 138.799C1030.14 138.716 1030.35 138.631 1030.56 138.543C1030.78 138.449 1031.34 138.265 1031.75 138.329C1032.73 138.451 1033.08 138.722 1033.67 138.973C1034.19 139.237 1034.69 139.533 1035.2 139.846C1037.24 141.114 1039.43 142.727 1041.95 144.655C1043.19 145.629 1044.52 146.671 1045.94 147.786C1047.36 148.872 1048.85 150.184 1050.44 151.201C1053.9 153.369 1057.78 155.805 1062.14 158.536C1064.31 159.905 1066.61 161.345 1069.03 162.865C1071.46 164.369 1074.06 165.928 1076.72 167.722C1079.38 169.523 1082.12 171.56 1084.71 174.053C1087.3 176.49 1089.68 179.623 1091.68 182.827C1100.97 197.081 1107.19 209.353 1112.35 219.113C1117.45 228.895 1121.31 236.32 1124.2 241.872C1130.07 252.913 1131.99 256.492 1131.3 256.91Z" fill="#222222"/>
<path d="M1046.5 269.325C1046.5 269.522 1043.74 269.693 1037.76 269.842C1031.78 269.989 1022.57 270.115 1009.68 270.219V268.566C1043.99 268.395 1104.54 268.45 1200 268.686V271.321C1090.17 271.28 933.797 271.224 717.718 271.144C410.863 270.908 231.433 270.771 128.719 270.693C77.3613 270.581 45.1816 270.432 25.8413 270.213C16.1711 270.105 9.71082 269.979 5.66852 269.832C1.62622 269.685 0 269.518 0 269.327C0 269.135 1.55264 268.972 5.47104 268.833C9.38944 268.694 15.6717 268.581 25.1289 268.488C44.0452 268.302 75.6634 268.204 126.477 268.161C228.1 268.2 406.493 268.266 713.573 268.38C934.652 268.498 1091.22 268.583 1200 268.641V271.365C1102.56 271.011 1043.14 270.717 1009.68 270.36V268.426C1022.96 268.525 1032.17 268.645 1038.05 268.794C1043.94 268.941 1046.5 269.118 1046.5 269.325Z" fill="#222222"/>
<path d="M290.356 271.268C289.853 271.832 285.329 268.31 273.992 258.324C262.664 248.329 244.495 231.9 217.006 206.326C186.01 177.428 168.164 160.235 158.054 150.284C147.962 140.315 145.649 137.543 146.177 136.997C146.715 136.443 149.395 138.608 159.586 148.247C169.794 157.867 187.471 175.008 218.468 203.916C247.517 230.942 265.849 247.382 276.673 257.333C287.509 267.274 290.871 270.691 290.356 271.268Z" fill="#222222"/>
<path d="M102.537 174.383C104.027 174.737 103.466 176.758 101.874 183.453C100.08 191.009 99.8514 192.308 98.3626 191.954C96.8719 191.599 97.3811 190.428 99.1776 182.866C100.858 175.786 101.046 174.028 102.537 174.383Z" fill="#222222"/>
<path d="M144.88 138.721C145.869 139.891 140.789 144.086 124.287 158.046C105.661 173.803 102.556 176.535 101.567 175.365C100.577 174.196 103.739 171.813 122.378 156.044C139.827 141.283 143.891 137.552 144.88 138.721Z" fill="#222222"/>
<path d="M23.1309 268.116C22.5792 267.622 24.8946 264.397 31.8563 256.624C38.8413 248.878 50.4048 236.505 69.1643 218.599C90.4213 198.473 103.625 187.546 111.229 181.378C118.882 175.259 121.064 174.018 121.534 174.603C122.026 175.21 120.365 176.92 113.01 183.189C105.702 189.504 92.5702 200.268 71.3501 220.328C51.5761 239.202 40.088 251.701 33.0876 259.018C26.122 266.365 23.7175 268.64 23.1309 268.116Z" fill="#222222"/>
<path d="M1166.27 270.835C1166.21 270.656 1166.31 270.428 1166.2 270.302C1166.1 270.217 1166.01 270.049 1165.73 269.702C1165.58 269.532 1165.44 269.392 1165.2 269.235C1164.91 269.001 1164.58 268.74 1164.21 268.449C1163.5 267.857 1162.65 267.127 1161.67 266.244C1157.74 262.719 1151.58 256.789 1142.12 247.719C1136.78 242.597 1132.55 238.539 1129.21 235.333C1127.56 233.774 1126.06 232.206 1124.92 231.25C1124.33 230.776 1123.84 230.528 1123.3 230.384C1122.75 230.235 1122.15 230.187 1121.57 230.166C1120.41 230.123 1119.33 230.139 1118.43 229.986C1117.52 229.838 1116.78 229.536 1116.32 229.163C1115.41 228.404 1115.5 227.86 1115.76 227.647C1116.07 227.372 1116.42 227.469 1117.09 227.62C1117.76 227.806 1118.88 227.802 1121.47 227.635C1122.12 227.62 1122.87 227.624 1123.75 227.796C1124.64 227.957 1125.65 228.408 1126.44 229.014C1128.02 230.262 1129.27 231.618 1130.99 233.217C1134.32 236.411 1138.54 240.463 1143.88 245.588C1153.89 255.176 1160.14 261.089 1163.75 264.74C1164.66 265.654 1165.4 266.424 1165.99 267.077C1166.3 267.431 1166.57 267.749 1166.82 268.029C1167.12 268.434 1167.28 268.802 1167.37 269.154C1167.57 269.82 1167.45 270.631 1166.95 270.951C1166.5 271.212 1166.31 270.989 1166.27 270.835Z" fill="#222222"/>
<path d="M962.842 145.592C962.673 145.919 960.496 145.062 955.065 142.166C949.66 139.235 940.938 134.342 928.384 125.588C926.612 124.343 924.942 123.044 923.602 121.528C922.268 120.02 921.265 118.425 920.394 116.907C918.692 113.858 917.314 111.14 916.114 108.71C913.732 103.853 912.158 100.204 911.07 97.5261C908.917 92.1576 908.627 90.7038 908.968 90.5741C909.343 90.4308 909.932 91.6988 912.185 96.9182C913.326 99.5221 914.898 103.111 917.26 107.915C918.442 110.311 919.827 113.029 921.482 116.022C922.322 117.503 923.265 119.031 924.485 120.44C925.691 121.852 927.249 123.094 928.99 124.328C942.189 133.539 950.984 138.346 956.147 141.32C961.349 144.245 963.024 145.238 962.842 145.592Z" fill="#222222"/>
<path d="M1012.52 146.752C1012.01 147.24 1008.83 144.164 999.414 133.189C996.774 130.078 994.731 127.573 993.136 125.577C991.516 123.602 990.431 121.931 989.944 120.553C989.44 119.18 989.46 118.201 989.57 117.661C989.69 117.113 989.866 116.96 990.05 116.985C990.246 117.01 990.352 117.19 990.431 117.653C990.522 118.114 990.611 118.875 991.095 120.03C991.574 121.192 992.542 122.684 994.15 124.636C995.74 126.611 997.763 129.11 1000.4 132.211C1010.33 143.767 1013.13 146.181 1012.52 146.752Z" fill="#222222"/>
<path d="M1088.21 198.634C1087.9 198.886 1086.66 197.581 1083.5 194.077C1080.3 190.608 1075.22 184.85 1066.42 177.077C1061.43 172.735 1057.33 169.409 1053.89 167.204C1050.44 164.981 1047.62 163.936 1045.53 163.419C1043.44 162.894 1042.08 162.9 1041.26 162.805C1040.45 162.761 1040.15 162.641 1040.12 162.451C1040.1 162.261 1040.36 162.104 1041.19 161.948C1042.02 161.837 1043.48 161.696 1045.71 162.163C1047.94 162.621 1050.93 163.686 1054.49 165.951C1058.06 168.211 1062.16 171.55 1067.19 175.922C1076.56 184.202 1081.71 190.052 1084.72 193.558C1087.71 197.103 1088.5 198.404 1088.21 198.634Z" fill="#222222"/>
<path d="M1081.4 230.791C1081.76 230.634 1082.45 231.825 1084.04 235.071C1085.63 238.31 1088.08 243.63 1092.34 251.523C1097.19 260.411 1100.4 265.39 1102.13 268.302C1103.89 271.202 1104.22 272.011 1103.9 272.226C1103.58 272.434 1102.98 271.845 1101.11 269.046C1099.25 266.233 1096.07 261.236 1091.19 252.303C1086.66 243.917 1084.17 238.542 1082.75 235.309C1081.35 232.067 1081.06 230.94 1081.4 230.791Z" fill="#222222"/>
<path d="M1046.74 269.477C1046.14 269.951 1043.77 266.889 1035.91 256.92C1027.03 245.669 1025.5 243.785 1026.1 243.311C1026.7 242.836 1028.05 244.728 1036.93 255.989C1045.25 266.531 1047.34 269.003 1046.74 269.477Z" fill="#222222"/>
<path d="M1075.18 267.837C1074.84 268.023 1073.08 265.214 1068.76 257.606C1064.44 249.997 1057.57 237.59 1047.02 218.578C1045.54 215.901 1044.1 213.413 1042.31 211.435C1040.54 209.456 1038.41 208.016 1036.31 206.815C1032.06 204.485 1028.07 202.63 1024.66 200.882C1017.81 197.42 1012.77 194.878 1009.1 193.028C1001.79 189.279 1000.02 188.188 1000.19 187.845C1000.36 187.502 1002.21 188.244 1009.51 191.816C1013.15 193.622 1018.16 196.111 1025.02 199.515C1028.43 201.259 1032.33 203.087 1036.71 205.449C1038.88 206.676 1041.15 208.149 1043.11 210.254C1045.06 212.35 1046.58 214.931 1048.07 217.618C1059.2 237.731 1066.11 250.212 1070.24 257.666C1074.31 265.148 1075.51 267.651 1075.18 267.837Z" fill="#222222"/>
<path d="M949.441 241.278C949.205 241.616 946.849 240.073 940.549 236.155C934.221 232.314 923.964 225.916 907.036 218.588C904.662 217.572 902.25 216.6 900.362 214.933C898.483 213.266 897.331 211.245 896.276 209.439C894.195 205.805 892.357 202.593 890.735 199.759C887.515 194.077 885.15 189.905 883.429 186.865C880.031 180.763 879.309 179.139 879.642 178.947C879.975 178.757 880.956 180.142 884.451 186.105C886.178 189.098 888.557 193.219 891.809 198.855C893.426 201.677 895.259 204.88 897.339 208.508C898.376 210.306 899.462 212.209 901.079 213.717C902.688 215.225 904.92 216.195 907.322 217.208C925.327 224.998 935.671 231.549 941.782 235.439C947.852 239.429 949.646 240.985 949.441 241.278Z" fill="#222222"/>
<path d="M997.18 258.426C997.046 258.763 995.209 258.285 990.629 256.341C986.081 254.349 978.709 250.971 968.257 244.348C962.367 240.6 957.934 237.28 954.492 234.59C952.783 233.171 951.387 232.263 949.888 232.382C948.411 232.438 947.017 232.823 945.877 232.997C941.296 233.83 940.106 233.884 940.03 233.508C939.955 233.133 941.027 232.751 945.528 231.778C946.669 231.568 947.937 231.17 949.708 231.038C950.579 230.984 951.644 231.131 952.587 231.607C953.536 232.064 954.366 232.744 955.212 233.402C958.616 236.056 963.001 239.351 968.843 243.082C979.809 250.034 987.212 253.3 991.545 255.365C995.914 257.369 997.331 258.051 997.18 258.426Z" fill="#222222"/>
<path d="M1001.94 253.777C1001.43 254.435 1000.36 253.223 995.868 250.652C993.305 249.256 991.705 248.65 990.832 248.205C989.953 247.771 989.777 247.523 989.907 247.159C990.035 246.801 990.321 246.722 991.274 247.02C992.22 247.33 993.851 247.986 996.497 249.425C998.961 250.793 1000.4 251.802 1001.21 252.464C1002.01 253.134 1002.17 253.478 1001.94 253.777Z" fill="#222222"/>
<path d="M774.368 252.191C773.63 252.396 772.98 249.899 770.718 241.744C768.167 232.539 767.696 230.99 768.434 230.785C769.172 230.58 769.477 232.101 772.031 241.313C774.422 249.937 775.105 251.988 774.368 252.191Z" fill="#222222"/>
<path d="M853.216 250.992C853.2 251.364 852.484 251.54 850.606 251.472C848.734 251.389 845.689 251.1 841.137 250.067C836.011 248.853 833.134 247.697 831.525 246.988C829.922 246.253 829.595 245.893 829.746 245.548C829.903 245.192 830.346 245.225 831.957 245.798C833.574 246.346 836.356 247.505 841.379 248.706C846.095 249.776 849.098 249.997 850.873 250.224C852.654 250.433 853.233 250.599 853.216 250.992Z" fill="#222222"/>
<path d="M872.188 258.357C871.884 259.06 871.298 258.764 869.319 257.906C867.087 256.94 866.692 256.812 866.996 256.109C867.3 255.407 867.618 255.666 869.852 256.632C871.944 257.538 872.492 257.654 872.188 258.357Z" fill="#222222"/>
<path d="M297.742 246.95C297.587 247.267 294.737 246.16 287.615 242.42C280.533 238.631 269.082 232.267 252.977 220.404C248.45 217.037 244.47 213.914 240.989 211.016C237.483 208.151 234.525 205.427 231.782 203.313C226.309 198.963 221.076 198.154 217.436 197.658C213.74 197.223 211.377 197.178 209.965 197.031C208.55 196.903 208.074 196.76 208.078 196.566C208.08 196.377 208.537 196.241 209.929 196.167C211.321 196.113 213.653 196.03 217.415 196.382C219.291 196.574 221.535 196.899 224.115 197.685C226.69 198.465 229.569 199.871 232.399 202.047C235.249 204.209 238.159 206.904 241.64 209.758C245.099 212.637 249.051 215.754 253.556 219.113C270.501 231.609 282.055 237.828 288.837 241.643C295.678 245.386 297.924 246.578 297.742 246.95Z" fill="#222222"/>
<path d="M335.55 253.381C335.364 253.724 333.726 253.025 329.548 250.917C325.366 248.818 318.654 245.285 308.169 240.257C296.321 234.614 289.255 231.613 285.259 229.791C281.253 227.985 280.291 227.4 280.442 227.042C280.587 226.694 281.639 226.942 285.669 228.591C289.694 230.256 296.72 233.28 308.607 238.935C319.717 244.263 326.495 247.809 330.505 249.991C334.508 252.185 335.73 253.048 335.55 253.381Z" fill="#222222"/>
<path d="M538.054 165.427C537.804 166.151 532.215 164.189 513.833 157.872C511.244 157.003 508.797 156.053 507.018 154.457C505.235 152.856 504.354 150.913 503.716 149.286C502.546 145.955 502.043 143.529 501.371 141.87C500.755 140.193 500.153 139.277 499.846 138.679C499.503 138.106 499.458 137.831 499.598 137.7C499.737 137.568 499.981 137.645 500.512 138.131C501.005 138.631 501.785 139.583 502.515 141.318C503.294 143.027 503.868 145.534 504.964 148.677C505.551 150.22 506.354 151.933 507.841 153.329C509.334 154.732 511.562 155.648 514.145 156.517C533.58 163.196 538.304 164.703 538.054 165.427Z" fill="#222222"/>
<path d="M211.743 254.111C211.375 254.309 210.004 251.895 206.161 245.676C202.264 239.506 195.978 229.399 183.923 215.746C182.238 213.781 180.713 211.727 179.807 209.47C178.895 207.23 178.525 204.998 178.246 202.936C177.78 198.83 177.368 195.202 177.002 192C176.31 185.599 175.801 180.899 175.432 177.476C174.744 170.625 174.729 168.872 175.11 168.83C175.492 168.787 175.84 170.423 176.673 177.186C177.066 180.57 177.608 185.229 178.347 191.601C178.709 194.783 179.12 198.394 179.584 202.487C179.844 204.508 180.188 206.63 180.988 208.699C181.772 210.765 183.15 212.709 184.796 214.643C197.577 229.12 203.898 239.466 207.578 245.576C211.187 251.765 212.052 253.945 211.743 254.111Z" fill="#222222"/>
<path d="M181.816 154.548C181.183 154.116 183.365 150.98 190.416 140.615C191.413 139.143 192.319 137.869 192.904 136.659C193.504 135.451 193.775 134.338 193.779 133.328C193.759 131.285 193.258 129.667 193.181 128.445C192.964 125.95 193.556 125.311 193.86 125.417C194.292 125.52 194.104 126.025 194.429 128.228C194.559 129.347 195.089 130.869 195.161 133.252C195.188 134.452 194.849 135.841 194.193 137.178C193.543 138.532 192.602 139.854 191.614 141.31C184.155 152.273 182.449 154.98 181.816 154.548Z" fill="#222222"/>
<path d="M269.611 84.2784C268.923 83.9396 269.715 82.4237 272.199 77.3921C275 71.7139 275.442 70.7344 276.127 71.0731C276.814 71.4119 276.259 72.2831 273.455 77.9652C270.83 83.2852 270.298 84.6171 269.611 84.2784Z" fill="#222222"/>
<path d="M66.5431 239.022C65.8423 238.834 66.4812 236.066 69.3425 227.228C72.7015 217.297 73.4952 215.69 74.1592 215.951C74.922 216.248 74.0218 217.713 70.6764 227.594C67.6718 236.887 67.3253 239.237 66.5431 239.022Z" fill="#222222"/>
<path d="M60.4797 258.784C59.835 258.3 60.6868 257.489 62.5899 254.219C64.6149 250.462 64.6633 249.689 65.4242 249.995C66.0863 250.253 65.9023 250.973 63.8076 254.87C61.7187 258.449 61.0489 259.22 60.4797 258.784Z" fill="#222222"/>
<path d="M430.919 229.793C430.317 230.267 427.709 226.899 419.052 215.928C409.277 203.543 407.591 201.47 408.191 200.996C408.793 200.521 410.288 202.597 420.068 214.989C429.225 226.589 431.519 229.317 430.919 229.793Z" fill="#222222"/>
<path d="M464.311 246.476C464.044 247.119 459.823 245.585 446.62 239.181C439.198 235.509 434.96 233.16 432.571 231.753C430.19 230.334 429.673 229.823 429.86 229.492C430.052 229.155 430.71 229.35 433.13 230.616C435.556 231.871 439.734 234.229 447.129 237.894C454.064 241.301 458.47 243.194 461.064 244.41C463.662 245.614 464.462 246.12 464.311 246.476Z" fill="#222222"/>
<path d="M482.346 266.557C482.097 266.838 481.343 266.431 479.671 264.995C478.004 263.553 475.4 261.1 471.671 257.085C467.488 252.533 465.25 249.683 464.03 248.013C462.822 246.332 462.659 245.8 462.96 245.569C463.267 245.335 463.691 245.639 464.996 247.194C466.313 248.737 468.483 251.567 472.63 256.086C476.535 260.292 479.167 262.697 480.674 264.199C482.188 265.694 482.606 266.267 482.346 266.557Z" fill="#222222"/>
<path d="M501.762 269.593C501.199 270.112 499.275 267.97 492.861 261.03C485.622 253.195 484.366 251.894 484.929 251.375C485.492 250.854 486.582 252.2 493.827 260.041C500.608 267.378 502.326 269.072 501.762 269.593Z" fill="#222222"/>
<path d="M619.117 269.343C619.032 269.516 618.362 269.324 616.9 268.679C615.434 268.044 613.177 266.954 610.012 265.171C603.639 261.683 593.727 255.286 579.104 244.801C570.828 238.92 564.213 234.362 558.881 230.928C553.542 227.509 549.538 225.136 546.582 223.484C540.673 220.174 539.159 219.353 539.345 218.97C539.492 218.66 541.095 219.146 547.062 222.303C550.041 223.889 554.072 226.214 559.421 229.637C564.766 233.061 571.395 237.63 579.679 243.518C587.435 249.027 593.752 253.424 598.936 256.82C604.14 260.182 608.14 262.653 611.193 264.387C614.238 266.141 616.253 267.303 617.514 268.029C618.755 268.786 619.202 269.173 619.117 269.343Z" fill="#222222"/>
<path d="M847.557 108.345C847.807 108.618 847.056 109.595 844.69 111.765C842.314 113.922 838.348 117.314 831.841 121.939C824.463 127.112 819.844 129.679 817.187 131.096C814.512 132.488 813.745 132.666 813.569 132.335C813.385 131.99 813.96 131.522 816.512 130.025C819.046 128.502 823.617 126.008 830.946 120.882C837.771 116.032 841.679 112.596 844.072 110.625C846.453 108.637 847.292 108.054 847.557 108.345Z" fill="#222222"/>
<path d="M895.393 153.187C895.126 153.358 894.518 152.806 893.44 151.083C892.905 150.219 892.255 149.062 891.542 147.53C891.184 146.766 890.811 145.906 890.433 144.944C890.253 144.46 890.063 143.953 889.866 143.422C889.703 142.938 889.535 142.433 889.359 141.906C888.236 140.811 886.983 139.587 885.591 138.228C874.239 127.145 872.287 125.294 872.823 124.746C873.358 124.198 875.12 126.074 886.48 137.165C888.001 138.648 889.362 139.976 890.572 141.157C890.791 141.815 891 142.441 891.2 143.039C891.401 143.577 891.591 144.088 891.773 144.574C892.152 145.54 892.518 146.398 892.863 147.155C893.552 148.673 894.137 149.807 894.568 150.665C895.441 152.374 895.68 153.005 895.393 153.187Z" fill="#222222"/>
<path d="M346.285 214.878C345.88 215.428 342.752 213.43 333.681 205.454C328.615 200.895 325.839 198.028 324.304 196.342C322.78 194.642 322.525 194.092 322.801 193.833C323.082 193.567 323.572 193.862 325.177 195.426C326.793 196.977 329.504 199.832 334.533 204.366C339.263 208.587 342.382 210.987 344.186 212.491C345.998 213.988 346.519 214.569 346.285 214.878Z" fill="#222222"/>
<path d="M456.739 222.989C456.064 223.349 455.094 221.446 451.799 215.262C448.078 208.283 447.414 207.118 448.089 206.758C448.765 206.398 449.268 207.58 452.991 214.565C456.476 221.105 457.415 222.629 456.739 222.989Z" fill="#222222"/>
<path d="M631.832 207.061C631.391 206.513 632.785 205.164 638.091 201.847C641.115 200.026 642.983 199.131 644.081 198.692C645.185 198.262 645.533 198.312 645.69 198.657C645.849 199.009 645.657 199.267 644.65 199.82C643.651 200.384 641.816 201.218 638.848 203.001C633.352 206.447 632.347 207.719 631.832 207.061Z" fill="#222222"/>
<path d="M745.096 134.401C745.454 134.674 744.379 135.88 742.67 139.597C742.26 140.532 741.838 141.636 741.468 142.937C741.052 144.222 740.949 145.744 740.269 147.569C739.561 149.482 737.731 150.835 735.993 152.03C734.223 153.282 732.282 154.655 730.158 156.159C710.963 169.742 707.734 172.075 707.29 171.45C706.847 170.824 710.022 168.716 729.231 155.124C731.478 153.532 733.511 152.092 735.35 150.789C737.222 149.515 738.643 148.309 739.112 146.733C739.617 145.175 739.826 143.488 740.3 142.147C740.732 140.788 741.218 139.659 741.685 138.722C743.646 135.007 744.862 134.198 745.096 134.401Z" fill="#222222"/>
<path d="M889.349 87.6955C888.615 87.9162 888.084 86.0131 886.22 79.8064C884.116 72.8001 883.721 71.625 884.455 71.4043C885.188 71.1836 885.423 72.351 887.529 79.3611C889.5 85.924 890.082 87.4748 889.349 87.6955Z" fill="#222222"/>
<path d="M352.325 265.296C351.732 265.781 351.132 264.984 349.061 262.453C346.724 259.596 346.296 259.137 346.889 258.651C347.481 258.165 347.773 258.7 350.112 261.559C352.303 264.235 352.917 264.81 352.325 265.296Z" fill="#222222"/>
<path d="M357.165 221.181C356.694 221.785 356.088 221.264 354.017 219.653C351.678 217.835 351.258 217.558 351.729 216.954C352.199 216.35 352.509 216.732 354.847 218.551C357.037 220.255 357.635 220.577 357.165 221.181Z" fill="#222222"/>
<path d="M246.228 264.442C246.031 264.757 244.542 264.074 240.916 261.77C237.309 259.445 231.528 255.532 223.26 248.776C218.606 244.962 215.069 241.71 212.316 239.191C209.58 236.676 207.18 235.518 205.311 235.267C203.445 234.982 202.291 235.325 201.61 235.495C200.928 235.696 200.655 235.754 200.543 235.582C200.444 235.439 200.553 235.147 201.236 234.717C201.912 234.324 203.253 233.776 205.393 234.001C207.53 234.173 210.324 235.491 213.125 238.06C215.922 240.598 219.372 243.8 224.015 247.605C232.699 254.71 238.529 258.545 241.932 260.926C245.361 263.276 246.439 264.107 246.228 264.442Z" fill="#222222"/>
<path d="M733.635 197.19C734.111 197.79 733.511 198.216 731.622 199.72C729.488 201.416 729.151 201.735 728.675 201.135C728.199 200.535 728.613 200.349 730.749 198.651C732.746 197.06 733.159 196.59 733.635 197.19Z" fill="#222222"/>
<path d="M901.073 163.55C900.386 163.889 900.194 163.409 899.451 161.897C898.61 160.189 898.432 159.916 899.12 159.579C899.807 159.241 899.844 159.568 900.684 161.277C901.47 162.876 901.76 163.211 901.073 163.55Z" fill="#222222"/>
<path d="M988.095 155.667C987.884 156.348 987.173 156.28 985.472 155.066C983.665 153.553 983.598 153.041 984.186 152.67C984.868 152.203 984.78 152.677 986.298 153.961C987.822 155.035 988.364 154.892 988.095 155.667Z" fill="#222222"/>
<path d="M179.259 157.032C179.718 157.645 179.441 157.802 178.612 158.422C177.677 159.121 177.544 159.27 177.085 158.656C176.626 158.042 176.845 158.019 177.78 157.32C178.657 156.666 178.8 156.418 179.259 157.032Z" fill="#222222"/>
<path d="M242.222 118.661C242.009 119.397 241.58 119.23 240.133 118.812C238.501 118.338 238.215 118.297 238.428 117.562C238.641 116.826 238.875 117.01 240.507 117.484C242.037 117.926 242.435 117.926 242.222 118.661Z" fill="#222222"/>
<path d="M264.608 95.2837C263.94 94.9082 264.267 94.4106 265.224 92.7128C266.302 90.7962 266.451 90.4535 267.119 90.8291C267.787 91.2047 267.514 91.4602 266.434 93.3787C265.423 95.1714 265.276 95.6593 264.608 95.2837Z" fill="#222222"/>
<path d="M442.978 119.227C443.248 119.513 442.661 120.276 440.948 122.096C439.246 123.925 436.375 126.793 432.439 131.596C428.035 137.049 425.837 140.52 424.478 142.431C423.141 144.36 422.69 144.784 422.357 144.58C422.035 144.385 422.18 143.802 423.388 141.789C424.618 139.793 426.86 136.319 431.308 130.796C435.515 125.66 438.431 122.731 440.214 121.041C442.012 119.364 442.723 118.952 442.978 119.227Z" fill="#222222"/>
<path d="M1084.59 267.18C1084.01 267.672 1080.11 262.751 1067.23 246.688C1052.69 228.558 1050.19 225.509 1050.8 225.042C1051.41 224.576 1053.67 227.576 1068.21 245.703C1081.81 262.67 1085.18 266.689 1084.59 267.18Z" fill="#222222"/>
<path d="M1126.7 271.277C1126.51 271.6 1125.2 271.079 1122.01 269.252C1118.83 267.413 1113.73 264.298 1106.23 259.063C1097.79 253.119 1093.11 249.3 1090.47 247.073C1087.85 244.826 1087.3 244.113 1087.54 243.825C1087.79 243.527 1088.53 243.949 1091.21 246.043C1093.9 248.119 1098.51 251.927 1106.91 257.853C1114.8 263.361 1119.93 266.425 1122.94 268.334C1125.96 270.231 1126.9 270.938 1126.7 271.277Z" fill="#222222"/>
<path d="M101.803 204.916C102.37 205.379 100.126 208.263 92.2412 217.279C83.2505 227.373 81.574 228.947 81.0532 228.451C80.4627 227.892 82.1742 226.504 91.1454 216.435C99.4527 206.927 101.18 204.405 101.803 204.916Z" fill="#222222"/>
<path d="M212.589 120.981C213.03 121.606 211.857 122.386 208.082 125.052C203.821 128.06 203.12 128.603 202.678 127.977C202.237 127.352 202.992 126.955 207.257 123.945C211.247 121.126 212.145 120.355 212.589 120.981Z" fill="#222222"/>
<path d="M748.581 269.571C748.209 269.664 747.589 267.931 746.337 263.266C745.735 260.925 744.947 257.858 743.932 253.923C743.137 250.738 742.163 246.849 740.986 242.144C740.426 244.481 739.927 246.576 739.478 248.454C738.893 251.104 738.376 253.446 737.919 255.514C737.071 259.663 736.45 262.71 735.997 264.931C735.104 269.372 734.756 270.477 734.373 270.413C734.001 270.351 734.001 269.236 734.735 264.799C735.108 262.582 735.67 259.535 736.535 255.39C736.99 253.323 737.505 250.976 738.088 248.32C738.399 246.996 738.73 245.594 739.081 244.109C739.636 241.887 740.223 239.542 740.843 237.066L740.988 236.495C741.036 236.629 741.083 236.857 741.129 237.033L741.412 238.156C741.598 238.903 741.783 239.641 741.965 240.369C742.209 241.349 742.449 242.303 742.682 243.236C743.032 244.632 743.363 245.96 743.679 247.22C744.308 249.741 744.871 251.994 745.375 254.004C746.36 258.031 747.107 261.088 747.667 263.372C748.739 267.953 748.952 269.478 748.581 269.571Z" fill="#222222"/>
<path d="M766.117 271.004C765.838 271.227 764.988 270.577 763.462 268.296C762.02 266.012 759.72 262.02 758.665 255.252L758.568 254.545L758.557 254.458L758.551 254.415L758.549 254.394L758.547 254.382C758.071 254.436 759.192 254.295 759.083 254.311C759.166 254.291 759.145 254.282 759.145 254.282C759.145 254.282 759.151 254.293 759.18 254.301L759.205 254.305C758.731 254.286 759.869 254.33 759.749 254.332V254.342L759.747 254.384L759.74 254.555C759.712 255.008 759.687 255.447 759.662 255.877C759.604 256.734 759.519 257.542 759.43 258.305C759.246 259.828 759.014 261.166 758.772 262.337C758.282 264.68 757.765 266.364 757.339 267.57C756.458 269.973 756.007 270.488 755.664 270.352C755.295 270.207 755.409 269.597 756.117 267.237C756.458 266.052 756.929 264.42 757.401 262.149C757.635 261.013 757.864 259.718 758.044 258.239C758.131 257.499 758.216 256.713 758.276 255.881C758.301 255.465 758.328 255.035 758.355 254.595L758.377 254.216C758.39 254.057 758.477 253.817 758.698 253.658C758.915 253.499 759.223 253.469 759.465 253.585C759.714 253.695 759.858 253.933 759.896 254.102L759.927 254.278L760.02 254.955C760.51 258.386 761.43 261.065 762.295 263.146C763.174 265.23 764.016 266.73 764.663 267.837C765.985 270.033 766.436 270.755 766.117 271.004Z" fill="#222222"/>
<path d="M937.479 270.113C937.132 270.263 936.383 269.029 934.865 265.572C934.108 263.841 933.167 261.553 932.023 258.589C931.468 257.1 930.85 255.449 930.169 253.619C929.685 252.252 929.156 250.754 928.575 249.114C927.861 252.85 927.296 255.811 926.849 258.149C926.198 261.394 925.722 263.777 925.375 265.512C924.63 268.971 924.283 269.817 923.906 269.746C923.53 269.674 923.528 268.803 924.117 265.351C924.434 263.63 924.872 261.256 925.468 258.016C925.778 256.397 926.128 254.56 926.525 252.479C926.725 251.439 926.934 250.336 927.158 249.17C927.36 248.109 927.569 247.019 927.782 245.9C927.898 245.287 928.016 244.665 928.136 244.036C928.177 243.445 928.304 244.096 928.405 244.334L928.721 245.261C929.327 247.023 929.902 248.704 930.451 250.303C930.829 251.358 931.187 252.361 931.528 253.311C932.234 255.205 932.867 256.899 933.433 258.409C934.606 261.413 935.496 263.694 936.162 265.401C937.498 268.807 937.835 269.961 937.479 270.113Z" fill="#222222"/>
<path d="M955.239 270.97C954.92 271.158 954.217 270.399 952.916 268.06C952.272 266.889 951.487 265.317 950.616 263.243C950.179 262.206 949.73 261.04 949.269 259.735C949.05 259.075 948.808 258.351 948.545 257.559C948.326 258.398 948.129 259.147 947.952 259.819C947.565 261.24 947.199 262.486 946.862 263.584C946.185 265.777 945.621 267.369 945.178 268.513C944.28 270.799 943.873 271.31 943.523 271.179C943.161 271.043 943.234 270.433 943.976 268.132C944.342 266.978 944.845 265.39 945.532 263.22C945.863 262.13 946.227 260.893 946.613 259.482C946.798 258.775 946.996 258.026 947.205 257.232C947.59 255.621 947.997 253.92 948.425 252.125C948.46 252.249 948.5 252.394 948.541 252.541C948.783 253.397 949.019 254.231 949.248 255.046C949.364 255.455 949.48 255.86 949.594 256.258C949.699 256.601 949.803 256.942 949.906 257.277C950.14 258.022 950.378 258.725 950.614 259.389C951.085 260.717 951.547 261.89 951.979 262.928C952.852 265.001 953.594 266.54 954.147 267.69C955.266 269.984 955.58 270.77 955.239 270.97Z" fill="#222222"/>
<path d="M423.512 271.924C423.144 272.027 422.527 270.499 421.276 266.356C420.676 264.277 419.888 261.553 418.878 258.059C417.904 254.587 416.713 250.348 415.275 245.217C415.015 246.302 414.771 247.328 414.539 248.296C414.005 250.659 413.598 252.76 413.271 254.622C412.621 258.345 412.278 261.1 412.02 263.106C411.534 267.119 411.337 268.137 410.94 268.112C410.572 268.089 410.423 267.092 410.752 263.063C410.932 261.052 411.246 258.283 411.887 254.531C412.208 252.655 412.615 250.537 413.153 248.15C413.292 247.554 413.434 246.942 413.581 246.311C413.778 245.521 413.982 244.708 414.191 243.872C414.363 243.223 414.539 242.567 414.717 241.899L414.986 240.89L415.122 240.381L415.19 240.126L415.224 239.998C415.236 239.965 415.248 240.062 415.261 240.087C415.648 241.454 416.045 242.857 416.452 244.3C418.018 249.883 419.288 254.407 420.31 258.055C421.294 261.634 422.039 264.35 422.597 266.383C423.669 270.457 423.88 271.821 423.512 271.924Z" fill="#222222"/>
<path d="M437.271 271.006C436.95 271.192 436.305 270.508 435.122 268.394C434.536 267.335 433.829 265.91 433.037 264.033C432.644 263.092 432.224 262.04 431.808 260.86C431.608 260.265 431.397 259.644 431.177 258.991C431.088 258.707 430.995 258.411 430.898 258.101C430.898 258.101 430.898 258.103 430.9 258.093C430.766 258.618 430.64 259.115 430.52 259.584C430.213 260.782 429.94 261.843 429.698 262.778C429.21 264.648 428.838 266.021 428.54 267.014C427.942 269 427.636 269.465 427.282 269.362C426.925 269.26 426.892 268.72 427.33 266.712C427.549 265.709 427.884 264.338 428.356 262.472C428.999 259.954 429.814 256.761 430.842 252.727C431.041 253.466 431.266 254.291 431.494 255.139C431.711 255.915 431.922 256.672 432.129 257.41C432.255 257.814 432.379 258.207 432.499 258.593C432.725 259.262 432.942 259.897 433.147 260.499C433.575 261.7 433.997 262.761 434.39 263.698C435.175 265.576 435.85 266.964 436.342 268.009C437.349 270.088 437.61 270.808 437.271 271.006Z" fill="#222222"/>
<path d="M399.99 268.409C399.692 268.62 398.941 267.967 397.568 265.81C396.891 264.728 396.076 263.259 395.207 261.292C394.777 260.307 394.337 259.195 393.911 257.943C393.524 256.862 392.934 254.681 393.032 255.01C391.873 257.252 390.955 259.027 390.231 260.43C389.211 262.392 388.45 263.824 387.871 264.856C386.711 266.918 386.276 267.367 385.935 267.191C385.594 267.015 385.711 266.432 386.723 264.322C387.228 263.267 387.958 261.83 388.965 259.873C389.47 258.895 390.043 257.786 390.692 256.528C391.017 255.898 391.36 255.234 391.726 254.53C392.063 253.877 392.409 253.205 392.765 252.516C392.957 252.146 393.151 251.771 393.346 251.389L393.493 251.103C393.534 251.084 393.547 251.277 393.575 251.353L393.726 251.984C394.566 255.569 394.783 256.173 395.259 257.604C395.691 258.864 396.138 259.968 396.562 260.942C397.421 262.885 398.188 264.306 398.771 265.363C399.955 267.468 400.317 268.18 399.99 268.409Z" fill="#222222"/>
<path d="M157.861 268.798C157.504 268.908 156.73 267.145 155.259 262.307C154.531 259.887 153.627 256.696 152.599 252.571C152.084 250.507 151.534 248.211 150.965 245.659C150.616 244.027 150.237 242.236 149.819 240.275C147.797 246.178 146.196 250.855 144.932 254.551C143.471 258.733 142.396 261.803 141.614 264.041C139.999 268.496 139.44 269.572 139.078 269.448C138.716 269.324 138.931 268.186 140.385 263.729C141.132 261.509 142.164 258.448 143.573 254.266C145.155 249.645 147.161 243.785 149.697 236.372L150.095 235.209L150.146 235.064C150.163 234.998 150.179 234.963 150.186 235.05L150.246 235.348L150.365 235.943C150.521 236.732 150.676 237.513 150.831 238.283C151.048 239.35 151.259 240.389 151.464 241.404C151.782 242.869 152.084 244.263 152.37 245.586C152.963 248.226 153.526 250.58 154.049 252.675C155.094 256.865 155.961 260.026 156.6 262.394C157.888 267.117 158.236 268.682 157.861 268.798Z" fill="#222222"/>
<path d="M169.784 270.087C169.169 270.391 166.857 266.232 160.933 251.869C160.13 249.831 159.411 248.003 158.767 246.365C158.488 245.626 158.225 244.929 157.977 244.273C157.946 244.307 158.047 244.176 157.897 244.364C157.52 244.867 157.168 245.339 156.839 245.779C156.504 246.261 156.194 246.708 155.905 247.124C155.342 247.966 154.893 248.694 154.519 249.312C153.048 251.794 152.653 252.429 152.285 252.26C151.956 252.113 152.028 251.356 153.387 248.745C154.093 247.434 155.096 245.732 156.844 243.469C157.241 242.977 157.65 242.468 158.074 241.944L158.418 241.525L158.616 242.042C158.747 242.391 158.881 242.747 159.018 243.107C159.332 243.94 159.665 244.822 160.017 245.761C160.656 247.389 161.371 249.209 162.168 251.242C165.243 258.819 167.415 263.41 168.621 266.19C169.842 268.964 170.135 269.918 169.784 270.087Z" fill="#222222"/>
<path d="M178.727 268.77C178.452 269.028 177.892 268.722 176.779 267.56C175.681 266.391 173.997 264.381 171.873 260.997C171.279 260.043 170.77 259.17 170.338 258.376C170.125 257.977 169.926 257.602 169.736 257.247C169.695 257.164 169.657 257.085 169.62 257.011H169.612C169.459 257.133 169.316 257.247 169.178 257.356C168.843 257.617 168.547 257.847 168.284 258.055C167.754 258.461 167.345 258.75 167.028 258.941C166.393 259.327 166.118 259.327 165.936 259.106C165.752 258.883 165.806 258.626 166.313 258.091C166.567 257.824 166.933 257.485 167.44 257.048C168.129 256.475 168.994 255.755 170.077 254.853C170.352 255.398 170.646 255.981 170.959 256.603C171.141 256.943 171.333 257.305 171.538 257.691C171.953 258.457 172.44 259.298 173.014 260.219C175.203 263.71 176.901 265.636 177.828 266.846C178.779 268.04 179.013 268.503 178.727 268.77Z" fill="#222222"/>
<path d="M396.775 259.745C397.077 260.448 396.062 260.841 392.785 262.25C389.085 263.84 388.473 264.145 388.171 263.441C387.869 262.736 388.512 262.583 392.215 260.992C395.681 259.503 396.473 259.04 396.775 259.745Z" fill="#222222"/>
<path d="M415.199 258.692C415.623 259.331 415.116 259.619 413.523 260.676C411.724 261.869 411.442 262.105 411.018 261.466C410.594 260.827 410.948 260.728 412.746 259.534C414.431 258.417 414.775 258.053 415.199 258.692Z" fill="#222222"/>
<path d="M747.177 256.508C747.574 257.122 746.335 258.024 741.942 260.382C736.928 262.938 735.987 263.187 735.712 262.523C735.397 261.776 736.336 261.687 741.269 259.178C745.828 256.723 746.743 255.829 747.177 256.508Z" fill="#222222"/>
<path d="M932.536 260.035C932.836 260.262 932.829 260.6 932.41 261.216C931.988 261.822 931.166 262.724 929.669 263.795C927.96 264.978 926.8 265.413 926.13 265.588C925.449 265.748 925.228 265.615 925.116 265.253C925 264.883 925.106 264.689 925.669 264.409C926.225 264.114 927.284 263.758 928.852 262.682C930.3 261.646 931.011 260.786 931.495 260.341C931.975 259.884 932.227 259.801 932.536 260.035Z" fill="#222222"/>
<path d="M149.89 255.303C150.341 255.923 149.408 256.552 146.423 258.724C143.054 261.177 142.507 261.624 142.055 261.005C141.604 260.385 142.216 260.079 145.589 257.625C148.744 255.329 149.439 254.684 149.89 255.303Z" fill="#222222"/>
<path d="M158.745 261.017C159.08 261.188 159.169 261.451 158.958 261.946C158.743 262.432 158.24 263.164 157.218 264.004C156.045 264.93 155.191 265.23 154.703 265.323C154.204 265.402 154.037 265.245 153.942 264.879C153.844 264.506 153.907 264.328 154.277 264.132C154.635 263.925 155.348 263.714 156.339 262.942C157.249 262.194 157.623 261.557 157.913 261.234C158.198 260.903 158.401 260.841 158.745 261.017Z" fill="#222222"/>
</svg>
