<svg width="50" height="50" viewBox="0 0 50 50" fill="none" xmlns="http://www.w3.org/2000/svg">
<g clip-path="url(#clip0_306_967)">
<path d="M25 0C11.1928 0 0 11.1928 0 25C0 38.8072 11.1928 50 25 50C38.8072 50 50 38.8072 50 25C50 11.1928 38.8072 0 25 0Z" fill="#D0B898"/>
<path d="M37.1646 14.3801L32.6994 36.8931C32.6994 36.8931 32.075 38.4545 30.3576 37.7051L20.0533 29.8051L16.3064 27.9941L9.99898 25.8707C9.99898 25.8707 9.03101 25.5273 8.93726 24.7779C8.84371 24.0285 10.0302 23.6226 10.0302 23.6226L35.1037 13.7867C35.1037 13.7867 37.1646 12.8812 37.1646 14.3801Z" fill="#FAFAFA"/>
<path d="M19.2613 36.64C19.2613 36.64 18.9605 36.6119 18.5857 35.4252C18.2111 34.2387 16.3064 27.9938 16.3064 27.9938L31.4503 18.3766C31.4503 18.3766 32.3248 17.8457 32.2935 18.3766C32.2935 18.3766 32.4496 18.4701 31.9812 18.9072C31.5128 19.3445 20.0845 29.6174 20.0845 29.6174" fill="#F4DAD6"/>
<path d="M24.0042 32.8346L19.9284 36.5506C19.9284 36.5506 19.6099 36.7924 19.2612 36.6408L20.0417 29.7383" fill="#E1BCBF"/>
</g>
<defs>
<clipPath id="clip0_306_967">
<rect width="50" height="50" fill="white"/>
</clipPath>
</defs>
</svg>
